<?xml version="1.0" standalone="no"?>
<!DOCTYPE svg PUBLIC "-//W3C//DTD SVG 20010904//EN"
 "http://www.w3.org/TR/2001/REC-SVG-20010904/DTD/svg10.dtd">
<svg version="1" xmlns="http://www.w3.org/2000/svg"
 width="640pt" height="641pt" viewBox="0 0 640 641"
 preserveAspectRatio="xMidYMid meet">

<polyline points="260.8,126 323.8,62.5 137.1,112.2 69.3,462.3 262.8,402.8 526.4,454.8 389.3,59.5 315.5,64.8" fill="rgb(255, 255, 255)"/>
<polyline points="347,534 180,509.7 180,509.7 239.4,399.8 419.4,430.7 576.8,463.8 583.5,520.3 342.6,584.3 243.2,559.4 181.5,509.7 278.6,505.2 280.1,507.5" fill="#08f036"/>
<g transform="matrix(0.1,0,0,-0.1,0,641)"
fill="#1f1f1f" stroke="none">
<path d="M 3.8 3199.2 l 0 -3205 l 3200 0 l 3200 0 l 0 3205 l 0 3205 l -3200 0 l -3200 0 l 0 -3205 z m 3087 2152 c 435 -447 704 -959 778 -1480 c 17 -120 19 -396 5 -517 c -10 -75 -40 -239 -55 -295 c -5 -17 8 -27 77 -62 c 258 -132 539 -341 781 -581 c 229 -227 330 -375 285 -420 c -20 -20 -50 -14 -163 33 c -295 124 -759 261 -1177 350 c -88 18 -162 35 -164 38 c -3 3 6 24 21 46 c 72 115 235 479 235 527 c 0 15 -185 87 -330 129 c -172 49 -287 67 -475 72 c -240 7 -412 -18 -661 -97 c -132 -42 -224 -80 -224 -94 c 0 -34 80 -275 150 -452 c 27 -70 48 -129 46 -131 c -1 -2 -142 -41 -312 -88 c -350 -95 -596 -167 -894 -260 c -211 -67 -247 -74 -268 -53 c -31 31 -9 85 83 203 c 216 275 640 606 1023 799 c 62 31 72 39 67 59 c -63 283 -70 342 -70 587 c 0 198 3 238 23 335 c 106 496 390 984 865 1487 l 101 107 l 65 -58 c 36 -33 121 -115 188 -184 z m -629 -3179 c 16 -16 17 -1039 2 -1069 c -6 -10 -19 -19 -30 -19 c -11 0 -24 9 -30 19 c -6 13 -10 200 -10 538 c 0 537 0 543 40 543 c 9 0 21 -5 28 -12 z m 837 -532 c 0 -492 -1 -540 -17 -549 c -12 -8 -21 -7 -32 2 c -14 12 -16 72 -16 540 c 0 556 0 555 45 549 c 20 -3 20 -10 20 -542 z m -415 268 c 6 -15 10 -228 10 -534 c 0 -449 -2 -510 -16 -524 c -19 -19 -36 -20 -52 -4 c -18 18 -17 1074 1 1081 c 29 12 48 6 57 -19 z m 940 -99 l 0 -45 l 115 0 l 115 0 l 0 -40 l 0 -40 l -115 0 l -115 0 l 0 -99 c 0 -84 3 -102 21 -125 c 20 -25 24 -26 129 -26 l 108 0 l 4 -35 l 4 -35 l -121 0 c -101 0 -125 3 -152 20 c -58 35 -63 57 -63 275 l 0 195 l 35 0 c 35 0 35 0 35 -45 z m 402 -56 c 3 -9 9 -9 25 0 c 12 6 67 11 127 11 l 106 0 l 0 -40 l 0 -39 l -117 -3 c -147 -4 -143 1 -143 -185 l 0 -133 l -35 0 l -35 0 l 0 200 l 0 200 l 34 0 c 19 0 36 -5 38 -11 z m 388 -134 c 0 -193 -8 -185 183 -185 c 189 0 181 -8 185 186 l 3 144 l 35 0 l 34 0 l 0 -145 c 0 -243 -12 -255 -258 -255 c -181 0 -203 6 -238 64 c -16 25 -20 56 -22 169 c -2 76 -1 144 2 152 c 3 9 19 15 41 15 l 35 0 l 0 -145 z m 950 132 c 56 -19 80 -66 80 -153 l 0 -74 l -220 0 l -220 0 l 0 -25 c 0 -14 9 -34 20 -45 c 19 -19 33 -20 210 -20 l 190 0 l 0 -35 l 0 -35 l -206 0 l -206 0 l -39 39 l -39 39 l 0 120 c 0 115 1 122 26 151 c 14 17 40 35 57 40 c 47 14 306 12 347 -2 z"/>
<path d="M 2743.8 5377.2 c -247 -261 -494 -616 -625 -898 c -204 -438 -244 -801 -144 -1282 c 12 -57 25 -103 29 -103 c 3 0 60 20 126 44 c 380 140 745 171 1125 96 c 108 -22 373 -106 441 -141 c 22 -11 42 -19 43 -17 c 2 2 16 60 30 128 c 33 154 45 467 26 627 c -52 415 -247 847 -559 1238 c -101 126 -369 405 -389 405 c -6 0 -53 -44 -103 -97 z"/>
<path d="M 1813.8 2907.2 c -245 -129 -502 -315 -724 -524 c -99 -94 -251 -267 -242 -276 c 2 -3 100 25 218 61 c 316 97 555 166 813 236 c 127 34 231 64 233 65 c 2 2 -19 63 -46 137 c -28 73 -65 183 -83 243 c -18 61 -35 113 -38 117 c -4 4 -62 -22 -131 -59 z"/>
<path d="M 3777.8 2927.2 c -13 -51 -90 -236 -143 -340 c -28 -57 -51 -107 -51 -112 c 0 -5 19 -12 43 -16 c 64 -10 432 -100 554 -135 c 213 -62 469 -148 621 -209 c 62 -25 62 -24 -29 85 c -149 176 -395 394 -619 547 c -128 87 -335 207 -357 207 c -7 0 -16 -12 -19 -27 z"/>
<path d="M 5219.8 1668.2 c -9 -8 -16 -29 -16 -45 l 0 -29 l 179 0 c 172 0 180 1 186 20 c 4 13 0 31 -9 45 c -16 25 -18 25 -171 25 c -126 0 -156 -3 -169 -16 z"/>
</g>
    
    
</svg>
